<?xml version="1.0" encoding="UTF-8"?>
<svg id="Capa_1" data-name="Capa 1" xmlns="http://www.w3.org/2000/svg" viewBox="0 0 907.42 475.18">
  <g>
    <path d="M229.63,302.45v-172.96h24.34v172.96h-24.34Z"/>
    <path d="M294.37,248.23c5.62,21.5,22.7,35.29,42.59,35.29,15.21,0,29.48-7.95,36.97-21.74h24.34c-10.06,26.65-34.4,43.94-62.24,43.94-36.5,0-65.99-32.26-65.99-66.85,0-40.9,30.89-69.42,65.28-69.42,38.14,0,67.16,29.45,67.16,66.61,0,3.97,0,7.71-.7,12.15h-107.4ZM378.14,229.53c-1.87-21.97-21.29-37.87-42.12-37.87s-39.78,15.66-41.65,37.87h83.77Z"/>
    <path d="M435.24,248.23c5.62,21.5,22.7,35.29,42.59,35.29,15.21,0,29.48-7.95,36.97-21.74h24.34c-10.06,26.65-34.4,43.94-62.24,43.94-36.5,0-65.99-32.26-65.99-66.85,0-40.9,30.89-69.42,65.28-69.42,38.14,0,67.16,29.45,67.16,66.61,0,3.97,0,7.71-.7,12.15h-107.4ZM519.01,229.53c-1.87-21.97-21.29-37.87-42.12-37.87s-39.78,15.66-41.65,37.87h83.77Z"/>
    <path d="M629.01,345.69l27.61-39.03v-133.7h24.34v99.1h1.17l68.09-99.1h28.78l-121.21,172.73h-28.78Z"/>
    <polygon points="577.96 302.45 586.29 290.67 586.29 129.49 561.96 129.49 561.96 172.96 544.41 172.96 544.41 195.17 561.96 195.17 561.96 302.45 577.96 302.45"/>
    <polygon points="154.9 302.45 154.9 227.66 217.14 227.66 217.14 204.52 154.9 204.52 154.9 152.63 217.14 152.63 217.14 129.49 129.63 129.49 129.63 302.45 154.9 302.45"/>
  </g>
  <polygon points="609.13 129.49 609.13 295.34 590.7 321.39 593.74 317.1 588.79 324.1 129.63 324.1 129.63 332.49 129.63 345.69 588.27 345.69 590.7 345.69 594.39 345.69 602.88 345.69 602.88 345.69 633.46 302.45 633.46 302.45 633.46 296.62 633.46 129.49 609.13 129.49"/>
</svg>